PathFileType	4	(X/Y/Z)	/Users/itak/Documents/Research/Walk-IL/dataset/trc/00479_00167.trc
DataRate	CameraRate	NumFrames	NumMarkers	Units	OrigDataRate	OrigDataStartFrame	OrigNumFrames
100.000000	100.000000	4	53	mm	100.000000	75	605
Frame#	Time	RPSI			LPSI			L3			STRN			T10			C7			CLAV			RBAK			LBAK			LSHO			LUPA			LAEL			LAOL			LWTS			LWPS			LFRA			LIFD			LHPS			LHTS			RSHO			RUPA			RAEL			RAOL			RWTS			RWPS			RFRA			RIFD			RHTS			RHPS			RBHD			LFHD			RFHD			LBHD			LHIP			RHIP			RASI			LASI			LKNE			LTHI			LANK			LTIP			LTOE			LMT1			LMT5			LHEE			RKNE			RTHI			RANK			RTIP			RTOE			RMT1			RMT5			RHEE			
		X1	Y1	Z1	X2	Y2	Z2	X3	Y3	Z3	X4	Y4	Z4	X5	Y5	Z5	X6	Y6	Z6	X7	Y7	Z7	X8	Y8	Z8	X9	Y9	Z9	X10	Y10	Z10	X11	Y11	Z11	X12	Y12	Z12	X13	Y13	Z13	X14	Y14	Z14	X15	Y15	Z15	X16	Y16	Z16	X17	Y17	Z17	X18	Y18	Z18	X19	Y19	Z19	X20	Y20	Z20	X21	Y21	Z21	X22	Y22	Z22	X23	Y23	Z23	X24	Y24	Z24	X25	Y25	Z25	X26	Y26	Z26	X27	Y27	Z27	X28	Y28	Z28	X29	Y29	Z29	X30	Y30	Z30	X31	Y31	Z31	X32	Y32	Z32	X33	Y33	Z33	X34	Y34	Z34	X35	Y35	Z35	X36	Y36	Z36	X37	Y37	Z37	X38	Y38	Z38	X39	Y39	Z39	X40	Y40	Z40	X41	Y41	Z41	X42	Y42	Z42	X43	Y43	Z43	X44	Y44	Z44	X45	Y45	Z45	X46	Y46	Z46	X47	Y47	Z47	X48	Y48	Z48	X49	Y49	Z49	X50	Y50	Z50	X51	Y51	Z51	X52	Y52	Z52	X53	Y53	Z53	

76	0.75	-1365.118530273438	962.9989013671875	-62.96487045288086	-1349.026000976562	962.2994995117188	-202.8810577392578	-1343.869506835938	1053.156982421875	-117.952995300293	-1076.585815429688	1257.32373046875	-107.416145324707	-1363.483032226562	1176.161376953125	-124.4557723999023	-1305.105590820312	1445.723999023438	-107.7462692260742	-1116.053955078125	1369.60791015625	-112.2537460327148	-1369.44873046875	1323.683959960938	-16.18606376647949	-1330.20556640625	1397.140502929688	-210.0829315185547	-1223.179931640625	1422.981323242188	-283.4463806152344	-1221.069091796875	1304.823364257812	-384.1592102050781	-1189.547607421875	1086.95361328125	-411.5104675292969	-1273.522216796875	1071.452270507812	-353.2976684570312	-1107.086791992188	888.7655639648438	-357.4779052734375	-1148.258178710938	870.7584228515625	-416.6611633300781	-1164.719116210938	1000.219360351562	-417.8362426757812	-1093.378295898438	730.1666259765625	-364.7870178222656	-1137.957885742188	793.8843383789062	-415.4084777832031	-1084.455200195312	805.5103149414062	-363.7784729003906	-1244.481323242188	1417.998657226562	55.90018081665039	-1262.997314453125	1356.678344726562	131.4022979736328	-1247.668090820312	1068.902099609375	187.2696685791016	-1287.792602539062	1048.078369140625	137.0412902832031	-1120.898193359375	872.8806762695312	171.1928253173828	-1199.097900390625	853.3171997070312	212.4230346679688	-1242.169677734375	1010.98876953125	198.0806274414062	-1113.197143554688	715.941650390625	184.9234924316406	-1103.285034179688	775.64404296875	188.7494354248047	-1176.53076171875	769.1004028320312	217.2827453613281	-1219.419799804688	1650.25830078125	-18.43794822692871	-1086.020751953125	1658.973388671875	-176.7584991455078	-1084.173095703125	1661.310913085938	-46.26021575927734	-1237.509643554688	1652.432983398438	-195.1217956542969	-1202.626708984375	865.9598388671875	-307.9733276367188	-1265.61279296875	860.5134887695312	85.37296295166016	-1153.901123046875	900.6122436523438	37.02391815185547	-1110.80859375	900.4454956054688	-218.9961395263672	-1212.802124023438	447.5298156738281	-282.2477111816406	-1179.780883789062	598.804931640625	-297.5466613769531	-1284.430297851562	41.13162612915039	-287.6729736328125	-1221.464477539062	301.1652526855469	-298.4554443359375	-1057.73193359375	46.11796569824219	-199.3556060791016	-1136.71630859375	50.79580688476562	-176.4150695800781	-1129.776977539062	47.81900787353516	-289.6754760742188	-1334.852294921875	44.72614288330078	-227.4651489257812	-1235.835571289062	471.3973083496094	86.57636260986328	-1222.723510742188	730.4681396484375	109.5236663818359	-1298.633422851562	44.54362869262695	122.6514587402344	-1238.095458984375	330.3932800292969	107.9274978637695	-1084.126342773438	48.72843170166016	70.88170623779297	-1148.140625	52.13040542602539	35.44676971435547	-1165.311401367188	49.12897109985352	143.8983764648438	-1364.461669921875	35.47804641723633	79.19689178466797	
77	0.76	-1364.84375	963.066162109375	-62.8912239074707	-1348.746704101562	962.3701171875	-202.8000335693359	-1343.599975585938	1053.1435546875	-117.8437271118164	-1076.3486328125	1257.285766601562	-107.3949279785156	-1363.182495117188	1176.1630859375	-124.436882019043	-1304.791259765625	1445.730590820312	-107.7933959960938	-1115.774291992188	1369.540161132812	-112.2486953735352	-1369.108520507812	1323.662719726562	-16.14249229431152	-1329.878540039062	1397.093505859375	-210.1194305419922	-1222.819458007812	1422.9033203125	-283.4946899414062	-1220.79541015625	1304.71923828125	-384.1512756347656	-1189.290771484375	1086.872192382812	-411.5137329101562	-1273.233032226562	1071.373168945312	-353.265625	-1106.98974609375	888.6533203125	-357.5882873535156	-1148.112182617188	870.654052734375	-416.7813415527344	-1164.484375	1000.121643066406	-417.9208374023438	-1093.172729492188	730.04833984375	-365.0426940917969	-1137.830078125	793.7941284179688	-415.60107421875	-1084.291625976562	805.3583984375	-363.9514770507812	-1244.169311523438	1418.031372070312	55.84531402587891	-1262.654907226562	1356.760620117188	131.3901672363281	-1247.030395507812	1069.033203125	187.5842742919922	-1287.359252929688	1048.110473632812	137.5735321044922	-1120.127075195312	873.2056274414062	170.8930358886719	-1197.985961914062	853.6278076171875	212.7423095703125	-1241.41552734375	1011.122253417969	198.4421691894531	-1111.951416015625	716.3731079101562	185.0874176025391	-1102.101806640625	776.1119384765625	188.7097930908203	-1175.181274414062	769.4886474609375	217.7435150146484	-1219.013061523438	1650.259887695312	-18.4610767364502	-1085.612915039062	1658.8740234375	-176.9081115722656	-1083.800903320312	1661.284057617188	-46.43885040283203	-1237.088012695312	1652.363891601562	-195.2338256835938	-1202.43017578125	865.9140625	-307.8769226074219	-1265.379760742188	860.54638671875	85.46644592285156	-1154.214965820312	900.3770751953125	36.973876953125	-1110.568359375	900.3598022460938	-218.9232482910156	-1212.697875976562	447.5237426757812	-282.2169189453125	-1179.668090820312	598.787109375	-297.4864807128906	-1284.43798828125	41.16865158081055	-287.6738891601562	-1221.441650390625	301.1416625976562	-298.4489135742188	-1057.69482421875	46.04585266113281	-199.3463592529297	-1136.681762695312	50.78611373901367	-176.4047393798828	-1129.747436523438	47.78742218017578	-289.6963806152344	-1334.83349609375	44.74135589599609	-227.4501037597656	-1235.872802734375	471.4102783203125	86.62789154052734	-1222.562255859375	730.481201171875	109.572639465332	-1298.637084960938	44.53247833251953	122.6556015014648	-1238.152587890625	330.4197082519531	107.9784240722656	-1084.133544921875	48.72684860229492	70.86827087402344	-1148.138305664062	52.13616943359375	35.45411682128906	-1165.316040039062	49.12245178222656	143.9184875488281	-1364.46240234375	35.4792594909668	79.20106506347656	
78	0.77	-1364.571411132812	963.135986328125	-62.81525802612305	-1348.470581054688	962.4454345703125	-202.7347106933594	-1343.332885742188	1053.139282226562	-117.7267837524414	-1076.1103515625	1257.2470703125	-107.3879318237305	-1362.8818359375	1176.174072265625	-124.4038162231445	-1304.467407226562	1445.7431640625	-107.8500823974609	-1115.511840820312	1369.4677734375	-112.2656860351562	-1368.727172851562	1323.648071289062	-16.11997222900391	-1329.541259765625	1397.054077148438	-210.1594543457031	-1222.462036132812	1422.83544921875	-283.5379333496094	-1220.52978515625	1304.6162109375	-384.1412048339844	-1189.043579101562	1086.79736328125	-411.5215454101562	-1272.945190429688	1071.30126953125	-353.2110900878906	-1106.892333984375	888.5423583984375	-357.6911010742188	-1147.97607421875	870.53857421875	-416.8780822753906	-1164.251220703125	1000.015502929688	-417.99267578125	-1093.00634765625	729.93115234375	-365.2809753417969	-1137.686767578125	793.6943969726562	-415.7715454101562	-1084.14990234375	805.2264404296875	-364.1242370605469	-1243.84814453125	1418.069580078125	55.79140853881836	-1262.29052734375	1356.851196289062	131.3826904296875	-1246.326049804688	1069.177612304688	187.9388885498047	-1286.922119140625	1048.1728515625	138.1967468261719	-1119.4365234375	873.496826171875	170.3615264892578	-1196.7802734375	853.9693603515625	213.0732116699219	-1240.5986328125	1011.275390625	198.8466949462891	-1110.679443359375	716.8363647460938	185.152099609375	-1100.8671875	776.6171264648438	188.4832458496094	-1173.6943359375	769.9163208007812	218.2081604003906	-1218.6064453125	1650.260620117188	-18.48900413513184	-1085.211303710938	1658.80029296875	-177.0398712158203	-1083.41552734375	1661.27001953125	-46.60482025146484	-1236.707153320312	1652.30078125	-195.3405914306641	-1202.241455078125	865.870361328125	-307.7812805175781	-1265.152221679688	860.5819702148438	85.55490875244141	-1154.419921875	900.1865844726562	36.94053268432617	-1110.333129882812	900.2905883789062	-218.8523254394531	-1212.551879882812	447.5206604003906	-282.1812744140625	-1179.538818359375	598.7732543945312	-297.4321594238281	-1284.442504882812	41.20769882202148	-287.6688537597656	-1221.385620117188	301.0944213867188	-298.4357604980469	-1057.653198242188	45.97213745117188	-199.3300933837891	-1136.642211914062	50.77724075317383	-176.3936004638672	-1129.713256835938	47.75156021118164	-289.7249145507812	-1334.81201171875	44.75994873046875	-227.4331817626953	-1235.911254882812	471.4246215820312	86.67665100097656	-1222.401245117188	730.4904174804688	109.6183700561523	-1298.6396484375	44.52244567871094	122.6596527099609	-1238.208129882812	330.4468383789062	108.0276947021484	-1084.140625	48.72502136230469	70.85592651367188	-1148.135498046875	52.14303207397461	35.46225738525391	-1165.320068359375	49.11584091186523	143.9391174316406	-1364.459228515625	35.47802352905273	79.20027923583984	
79	0.78	-1364.2978515625	963.2083740234375	-62.74100112915039	-1348.201904296875	962.5223388671875	-202.6837768554688	-1343.065307617188	1053.1455078125	-117.610466003418	-1075.862915039062	1257.205444335938	-107.3925018310547	-1362.581176757812	1176.192749023438	-124.3609085083008	-1304.132934570312	1445.761352539062	-107.914436340332	-1115.268310546875	1369.392822265625	-112.303955078125	-1368.30322265625	1323.642333984375	-16.12353706359863	-1329.19970703125	1397.021850585938	-210.1964416503906	-1222.117431640625	1422.775634765625	-283.5714416503906	-1220.271118164062	1304.516845703125	-384.1290893554688	-1188.807739257812	1086.725830078125	-411.5328369140625	-1272.66015625	1071.235473632812	-353.1388244628906	-1106.783935546875	888.431640625	-357.7850952148438	-1147.844360351562	870.4178466796875	-416.9515686035156	-1164.021362304688	999.90625	-418.0529479980469	-1092.881225585938	729.8175659179688	-365.4908752441406	-1137.529907226562	793.5848999023438	-415.9155883789062	-1084.015258789062	805.1115112304688	-364.29296875	-1243.518676757812	1418.113403320312	55.74140548706055	-1261.901733398438	1356.950439453125	131.3746185302734	-1245.549072265625	1069.339111328125	188.3440551757812	-1286.479858398438	1048.269165039062	138.9235382080078	-1118.844360351562	873.74560546875	169.5627746582031	-1195.458374023438	854.3402099609375	213.4103851318359	-1239.7060546875	1011.449279785156	199.2981719970703	-1109.36279296875	717.3344116210938	185.0720672607422	-1099.571655273438	777.1599731445312	188.0162506103516	-1172.038940429688	770.3800048828125	218.6612701416016	-1218.200439453125	1650.264404296875	-18.52788925170898	-1084.823608398438	1658.756713867188	-177.1499938964844	-1083.017944335938	1661.26953125	-46.75023651123047	-1236.37109375	1652.246948242188	-195.4341430664062	-1202.057006835938	865.828369140625	-307.6876525878906	-1264.930053710938	860.61962890625	85.63797760009766	-1154.47607421875	900.0577392578125	36.93417739868164	-1110.113403320312	900.2333374023438	-218.7866973876953	-1212.360595703125	447.518310546875	-282.1378173828125	-1179.38623046875	598.764404296875	-297.3821105957031	-1284.437622070312	41.24320983886719	-287.6530151367188	-1221.295776367188	301.02490234375	-298.4152526855469	-1057.606689453125	45.89410018920898	-199.3076019287109	-1136.595825195312	50.76889801025391	-176.3804931640625	-1129.674682617188	47.71099853515625	-289.759521484375	-1334.78662109375	44.78232955932617	-227.4143524169922	-1235.950317382812	471.4390869140625	86.72154998779297	-1222.240966796875	730.4951782226562	109.66162109375	-1298.640625	44.51374816894531	122.6634826660156	-1238.260620117188	330.47412109375	108.0746917724609	-1084.147705078125	48.72306823730469	70.84458160400391	-1148.133056640625	52.15157318115234	35.47104263305664	-1165.322998046875	49.10942459106445	143.9600372314453	-1364.452758789062	35.47443389892578	79.19489288330078	
